<?xml version="1.0" encoding="utf-8"?>
<!-- Generator: Adobe Illustrator 15.0.0, SVG Export Plug-In . SVG Version: 6.00 Build 0)  -->
<!DOCTYPE svg PUBLIC "-//W3C//DTD SVG 1.1//EN" "http://www.w3.org/Graphics/SVG/1.1/DTD/svg11.dtd">
<svg version="1.1" id="レイヤー_1" xmlns="http://www.w3.org/2000/svg" xmlns:xlink="http://www.w3.org/1999/xlink" x="0px"
	 y="0px" width="45.354px" height="45.354px" viewBox="0 0 45.354 45.354" enable-background="new 0 0 45.354 45.354"
	 xml:space="preserve">
<path display="none" fill="#E23327" d="M44.474,12.788c-0.772-3.711-2.878-6.509-6.086-8.088
	c-6.577-3.244-12.536,0.162-15.762,3.352C19.4,4.862,13.446,1.448,6.865,4.7C3.657,6.279,1.552,9.077,0.78,12.788
	c-1.043,5.025,0.564,11.132,4,15.197c4.858,5.738,16.283,14.047,16.769,14.396c0.321,0.233,0.699,0.355,1.078,0.355
	s0.758-0.122,1.079-0.355c0.483-0.349,11.91-8.657,16.771-14.396C43.909,23.92,45.519,17.813,44.474,12.788"/>
<path display="none" fill="#040000" d="M22.627,43.487c-11.267,0-20.43-9.164-20.43-20.427c0-11.267,9.164-20.43,20.43-20.43
	c11.267,0,20.43,9.164,20.43,20.43c0,3.348-0.822,6.64-2.381,9.575l1.505,8.019c0.118,0.61-0.083,1.235-0.528,1.663
	c-0.445,0.431-1.077,0.604-1.678,0.474l-7.69-1.728C29.329,42.65,26.006,43.487,22.627,43.487 M22.627,6.308
	c-9.235,0-16.752,7.515-16.752,16.752c0,9.234,7.517,16.749,16.752,16.749c2.976,0,5.897-0.786,8.447-2.281
	c0.399-0.236,0.873-0.309,1.329-0.204l5.647,1.264l-1.11-5.923c-0.082-0.435-0.004-0.88,0.212-1.261
	c1.459-2.521,2.228-5.408,2.228-8.343C39.38,13.823,31.865,6.308,22.627,6.308"/>
<path fill="#040000" d="M43.963,5.981c-0.007-0.052-0.007-0.093-0.014-0.14c-0.011-0.059-0.004-0.119-0.019-0.176
	c-0.079-0.295-0.244-0.542-0.445-0.758c-0.018-0.02-0.015-0.048-0.032-0.066c-0.015-0.014-0.039-0.011-0.054-0.027
	c-0.259-0.239-0.575-0.397-0.927-0.46c-0.054-0.007-0.098-0.018-0.151-0.025c-0.058-0.004-0.107-0.025-0.165-0.025H3.124
	c-0.744,0-1.416,0.446-1.699,1.128c-0.284,0.688-0.129,1.48,0.394,2.006l13.916,13.984l5.182,19.041
	c0.196,0.711,0.803,1.242,1.541,1.34c0.077,0.011,0.158,0.014,0.231,0.014c0.656,0,1.267-0.352,1.597-0.923L43.751,7.059
	c0.011-0.023,0-0.045,0.011-0.066C43.928,6.683,43.995,6.336,43.963,5.981 M35.303,7.982L17.687,18.167L7.546,7.982H35.303z
	 M23.303,35.225l-3.777-13.874l9.911-5.728l7.709-4.461L23.303,35.225z"/>
<path display="none" fill="#040000" d="M38.421,3.222H6.831c-1.015,0-1.839,0.824-1.839,1.839v35.994
	c0,0.743,0.445,1.411,1.133,1.698c0.684,0.277,1.471,0.13,2.004-0.388l14.496-14.385l14.498,14.385
	c0.352,0.345,0.822,0.528,1.297,0.528c0.236,0,0.478-0.047,0.707-0.141c0.687-0.287,1.132-0.955,1.132-1.698V5.062
	C40.26,4.046,39.438,3.222,38.421,3.222 M36.581,36.64L23.926,24.087c-0.36-0.357-0.831-0.534-1.3-0.534
	c-0.467,0-0.938,0.176-1.293,0.534L8.67,36.64V6.9h27.911V36.64z"/>
</svg>
