<?xml version="1.0" encoding="utf-8"?>
<!-- Generator: Adobe Illustrator 15.0.0, SVG Export Plug-In . SVG Version: 6.00 Build 0)  -->
<!DOCTYPE svg PUBLIC "-//W3C//DTD SVG 1.1//EN" "http://www.w3.org/Graphics/SVG/1.1/DTD/svg11.dtd">
<svg version="1.1" id="レイヤー_1" xmlns="http://www.w3.org/2000/svg" xmlns:xlink="http://www.w3.org/1999/xlink" x="0px"
	 y="0px" width="45.354px" height="45.354px" viewBox="0 0 45.354 45.354" enable-background="new 0 0 45.354 45.354"
	 xml:space="preserve">
<path fill="#E23327" d="M44.474,12.788c-0.772-3.711-2.878-6.509-6.086-8.088c-6.577-3.244-12.536,0.162-15.762,3.352
	C19.4,4.862,13.446,1.448,6.865,4.7C3.657,6.279,1.552,9.077,0.78,12.788c-1.043,5.025,0.564,11.132,4,15.197
	c4.858,5.738,16.283,14.047,16.769,14.396c0.321,0.233,0.699,0.355,1.078,0.355s0.758-0.122,1.079-0.355
	c0.483-0.349,11.91-8.657,16.771-14.396C43.909,23.92,45.519,17.813,44.474,12.788"/>
</svg>
