<?xml version="1.0" encoding="utf-8"?>
<!-- Generator: Adobe Illustrator 27.9.0, SVG Export Plug-In . SVG Version: 6.00 Build 0)  -->
<svg version="1.1" id="レイヤー_1" xmlns="http://www.w3.org/2000/svg" xmlns:xlink="http://www.w3.org/1999/xlink" x="0px"
	 y="0px" viewBox="0 0 384.5 57.9" style="enable-background:new 0 0 384.5 57.9;" xml:space="preserve">
<g>
	<g>
		<path d="M20.1,37.4L4.3,51.2L0,41.8c6.3-4.6,9.8-7.6,16.3-13.5L20.1,37.4z M37.5,18.8c-7.6-3.5-13.9-5.3-21.3-6.5l3.7-8.4
			c3.9,0.8,11.8,2.5,21.3,6.3L37.5,18.8z M31.4,19.7c-0.6,0.8-1.9,2.3-1.9,4.1c0,1.3,0.4,1.9,4.3,6.4c4.3,5,7.4,8.6,7.4,14.2
			c0,4.3-2,11.7-13.4,11.7c-4.3,0-7.8-1-9.2-1.4l-1-10.6c5.6,2.5,8.7,2.6,9.7,2.6c0.7,0,3.2-0.1,3.2-2.8c0-1.9-1.3-3.5-4.6-7.4
			c-4.8-5.7-6.4-7.6-6.4-12c0-4.3,2.2-7.1,3.5-8.7L31.4,19.7z M48.5,47.2c-3.4-7-6.6-12.3-10.8-17.5l7.8-4.9
			C49.9,30.1,53.6,35.4,57,42L48.5,47.2z"/>
		<path d="M74.7,4.7l-1.2,31c-0.1,3.7-0.4,10.9,8.4,10.9c9,0,14.3-6.9,18.2-18.2l8.9,4.9c-5.8,15.4-14.2,23-27.5,23
			c-9.7,0-17-4.9-18.2-13.9c-0.1-0.9-0.4-2.9-0.2-6.6l1.1-31.7L74.7,4.7z M87.1,9.5c3.2,3.5,5.6,7,8,11.3l-5,3.9
			c-2.7-5-4.3-7.5-7.8-11.6L87.1,9.5z M95.2,4.4c3.6,3.6,6.2,7.7,8.3,11.1l-5.1,3.8c-2.8-4.9-4.2-7.1-7.9-11.2L95.2,4.4z"/>
		<path d="M142.8,3.5c2,2.6,2.9,4.1,5.1,7.6c1-0.2,2.3-0.4,4.2-0.4c8.7,0,16,5,16,14.8c0,11.6-11.1,16.1-22.1,15.5l-2.4-9.4
			c1.2,0.2,2.5,0.4,4.1,0.4c5.5,0,10.8-2,10.8-6.9c0-3-2.3-5.6-6.3-5.6c-4.6,0-8.9,1.8-17.1,5.3c5,12.8,8.4,23.9,10.3,30l-9.8,2.9
			c-2.8-9.8-5.7-19.6-9.4-29c-1.5,0.7-7.8,3.4-9,4l-4.2-8.8c1.5-0.7,8.3-3.5,9.7-4c-1.6-4-3.4-7.9-5.2-11.8l9.2-3.7
			c2.4,5.2,3.3,7.4,5.1,11.8c1.5-0.6,3.1-1.2,6.8-2.5c-1-1.6-1.5-2.3-3.6-5.4L142.8,3.5z"/>
		<path d="M211.1,7.6l8.9,11.8c-4.2,14.5-11.8,29.9-33.3,38.5l-6.8-8.1c7.5-2.6,14.2-6.8,19.6-12.5c7.2-7.6,9.6-15.5,10.9-20.5H194
			c-2.3,3.7-6.1,9.4-14.1,16l-7.6-6.5c8.1-6.5,12.5-12.7,15.6-18.7C187.9,7.6,211.1,7.6,211.1,7.6z M215.4,1
			c2.6,2.8,4.4,5.6,7.2,10.7l-4.3,2.8c-2.3-4.6-3.7-6.9-6.9-10.7L215.4,1z M224.4,0c2.8,3.4,4.4,6.1,6.9,11l-4.3,2.8
			c-2.1-4.7-3.5-7.1-6.5-11.2L224.4,0z"/>
		<path d="M245.1,5.6v14.6c0,12.3-1.2,25-13.2,36.5l-7.3-7.4c9-9.1,10.5-17.9,10.5-28.7V5.6H245.1z M259.9,4.8v37
			c6.5-4,11.1-9.3,14.3-14l6.7,6.8c-4.6,6.3-14.1,17.5-30.9,21.5V4.8H259.9z"/>
		<path d="M326.7,25.7V35h-39.8v-9.3H326.7z"/>
		<path d="M364.4,9.1l8.7,10c-2.3,11.8-7.8,27.8-29.4,37.6l-6.5-8.1c21.5-8.6,24.6-24.7,25.6-30.1h-34.2V9.1H364.4z M384.5,8.2
			c0,4.5-3.7,8.2-8.3,8.2c-4.6,0-8.3-3.7-8.3-8.2c0-4.6,3.7-8.2,8.3-8.2C380.7,0,384.5,3.6,384.5,8.2z M372.1,8.2
			c0,2.2,1.8,4.1,4.2,4.1c2.3,0,4.2-1.8,4.2-4.1c0-2.3-2-4.1-4.2-4.1C373.9,4.1,372.1,5.9,372.1,8.2z"/>
	</g>
</g>
</svg>
